<?xml version="1.0" encoding="UTF-8"?>
<svg version="1.1" xmlns="http://www.w3.org/2000/svg" width="366" height="366">
<path d="M0 0 C12.57458902 10.97042334 23.70398628 22.79558321 33.08203125 36.609375 C33.52095703 37.25197266 33.95988281 37.89457031 34.41210938 38.55664062 C52.15808869 64.87146838 64.11900081 96.9368493 64.28515625 128.91015625 C64.29085632 129.78600876 64.2965564 130.66186127 64.3024292 131.56425476 C64.31182997 133.41399957 64.31839346 135.26376075 64.32226562 137.11352539 C64.33187219 139.87613198 64.36290132 142.63796118 64.39453125 145.40039062 C64.48822992 160.97703191 62.88046153 176.1384852 58.39453125 191.109375 C58.14106934 191.97191895 57.88760742 192.83446289 57.62646484 193.72314453 C49.08396485 221.8001436 34.10894107 246.24940462 14.08203125 267.609375 C13.61700195 268.10840332 13.15197266 268.60743164 12.67285156 269.12158203 C-17.45403007 301.19436388 -61.84716979 321.90539057 -105.87939453 323.77783203 C-130.98925244 324.54855786 -153.90582368 322.25863097 -177.91796875 314.609375 C-179.15933594 314.23039062 -180.40070313 313.85140625 -181.6796875 313.4609375 C-210.13498531 304.14108386 -239.09465233 283.92781177 -257.91796875 260.609375 C-258.31838379 260.12130371 -258.71879883 259.63323242 -259.13134766 259.13037109 C-269.97480209 245.87989939 -278.67593981 232.1240896 -285.91796875 216.609375 C-286.46453125 215.44535156 -287.01109375 214.28132813 -287.57421875 213.08203125 C-307.33308922 169.07822024 -306.4309312 117.55366518 -289.77001953 72.78564453 C-285.31929621 61.41780852 -279.69320904 50.76599672 -272.91796875 40.609375 C-272.53914551 40.0412207 -272.16032227 39.47306641 -271.77001953 38.88769531 C-266.55105066 31.13514262 -260.90040756 24.1005071 -254.4609375 17.328125 C-252.66086524 15.40362378 -250.9703273 13.4934445 -249.3046875 11.4609375 C-246.15940857 7.7030756 -242.68182007 4.73146365 -238.91796875 1.609375 C-238.13220459 0.94711914 -238.13220459 0.94711914 -237.33056641 0.27148438 C-228.94060067 -6.77636989 -220.41370129 -12.98350552 -210.83496094 -18.31396484 C-208.91956806 -19.38972676 -207.03297011 -20.50664235 -205.14453125 -21.62890625 C-186.87036864 -32.19440463 -165.73473942 -38.33081629 -144.91796875 -41.390625 C-144.2643335 -41.49084961 -143.61069824 -41.59107422 -142.93725586 -41.69433594 C-92.02296515 -48.4692457 -39.14552176 -33.20191076 0 0 Z " fill="#7761F3" transform="translate(301.91796875,42.390625)"/>
<path d="M0 0 C1.00699951 0.00757324 2.01399902 0.01514648 3.05151367 0.02294922 C10.47411166 0.18742895 16.86010997 1.0600828 23.5625 4.4375 C24.43777344 4.87320313 25.31304687 5.30890625 26.21484375 5.7578125 C37.92690709 12.20385037 45.51067395 21.89998566 49.9375 34.4375 C54.35218285 51.46290137 53.64096154 71.76895758 44.96484375 87.296875 C43.58051304 89.43289389 42.13147843 91.43601726 40.5625 93.4375 C39.9025 94.4275 39.2425 95.4175 38.5625 96.4375 C39.60470703 96.83582031 39.60470703 96.83582031 40.66796875 97.2421875 C43.81926076 98.54353076 46.83250171 100.02453383 49.875 101.5625 C50.94363281 102.10132813 52.01226562 102.64015625 53.11328125 103.1953125 C53.92152344 103.60523438 54.72976563 104.01515625 55.5625 104.4375 C54.19658831 107.97993452 52.65318516 111.36377929 50.9375 114.75 C50.26847656 116.07451172 50.26847656 116.07451172 49.5859375 117.42578125 C49.24820313 118.08964844 48.91046875 118.75351563 48.5625 119.4375 C42.30838698 119.04457143 38.45847364 116.89375095 33.3125 113.4375 C31.9131656 112.51822922 30.51218786 111.60145383 29.109375 110.6875 C28.49932617 110.28015625 27.88927734 109.8728125 27.26074219 109.453125 C25.42304246 108.27127768 25.42304246 108.27127768 22.5625 107.4375 C20.45473633 107.96550373 20.45473633 107.96550373 18.171875 108.84375 C12.03247695 110.7937546 6.21848854 110.97453968 -0.1875 110.9375 C-1.33404053 110.93177979 -2.48058105 110.92605957 -3.66186523 110.92016602 C-18.05658682 110.61706553 -28.34881309 106.46830722 -38.62109375 96.26953125 C-49.7868924 84.36617526 -53.09001811 68.98759548 -52.83935547 52.97265625 C-52.25238782 37.57062504 -47.77990426 23.96178767 -36.984375 12.6953125 C-26.30718277 3.22994883 -14.01276995 -0.14858277 0 0 Z " fill="#FCFCFD" transform="translate(258.4375,120.5625)"/>
<path d="M0 0 C9.8175 -0.061875 19.635 -0.12375 29.75 -0.1875 C32.82538086 -0.21481201 35.90076172 -0.24212402 39.06933594 -0.27026367 C41.54101165 -0.27903577 44.01269173 -0.28667799 46.484375 -0.29296875 C47.74008301 -0.30831665 48.99579102 -0.32366455 50.28955078 -0.33947754 C59.82142198 -0.34227117 70.69695393 0.09583551 78.46875 6.34375 C85.9703414 14.45771621 87.49189195 22.46108702 87.2734375 33.1640625 C86.70556442 41.13051063 83.90211112 47.14520445 77.9921875 52.53515625 C72.89496348 56.28311509 66.94952149 58.04527916 61 60 C61.61746094 60.43828125 62.23492187 60.8765625 62.87109375 61.328125 C73.7207144 69.45295507 80.58912316 80.52673403 87.51489258 91.95874023 C88.58736231 93.72852774 89.66897604 95.49248544 90.75195312 97.25585938 C96 105.85034295 96 105.85034295 96 107 C87.39377833 108.83389807 78.41216583 110.13951467 70 107 C62.94727539 100.89479564 58.5437167 92.53653288 54.104599 84.44374084 C49.29126877 75.71651585 43.92737088 66.06580571 34 63 C29.71 62.67 25.42 62.34 21 62 C21 76.85 21 91.7 21 107 C14.07 107 7.14 107 0 107 C0 71.69 0 36.38 0 0 Z " fill="#FDFCFE" transform="translate(61,123)"/>
<path d="M0 0 C7.34001304 4.43170599 10.42462661 11.38955411 13.1171875 19.26953125 C14.12487544 23.5276816 14.34404934 27.39340669 14.3125 31.75 C14.30621582 32.93698486 14.30621582 32.93698486 14.29980469 34.14794922 C14.11690375 43.67630979 11.74227655 51.73926021 7 60 C6.01 60.495 6.01 60.495 5 61 C2.67975749 59.7952587 0.47689579 58.5471027 -1.75 57.1875 C-6.08652538 54.55526585 -10.08121482 52.42584417 -15 51 C-15.6509259 52.24735567 -16.29551669 53.49801832 -16.9375 54.75 C-17.29714844 55.44609375 -17.65679687 56.1421875 -18.02734375 56.859375 C-18.95558182 58.90224433 -19.53166578 60.81115376 -20 63 C-19.113125 63.268125 -18.22625 63.53625 -17.3125 63.8125 C-14.2090334 64.9250635 -11.68889315 66.10195778 -9 68 C-9 68.66 -9 69.32 -9 70 C-16.06256512 71.95212474 -22.20521995 71.6085224 -28.796875 68.32421875 C-35.63275435 64.21541893 -40.17480056 59.48258268 -43 52 C-43.35449219 51.18917969 -43.70898438 50.37835938 -44.07421875 49.54296875 C-45.47744998 44.1727969 -45.40926219 38.90333531 -45.4375 33.375 C-45.47037109 32.26253906 -45.50324219 31.15007812 -45.53710938 30.00390625 C-45.59962141 20.24066303 -43.38748957 11.37561018 -36.6875 4 C-25.9567902 -5.62711383 -12.66858493 -6.31455947 0 0 Z " fill="#7563F2" transform="translate(274,143)"/>
<path d="M0 0 C7.26 0 14.52 0 22 0 C22 35.64 22 71.28 22 108 C14.74 108 7.48 108 0 108 C0 72.36 0 36.72 0 0 Z " fill="#FBFBFE" transform="translate(168,122)"/>
<path d="M0 0 C4.85853072 -0.13830293 9.71015536 -0.25753443 14.5690918 -0.32958984 C16.21906755 -0.35963934 17.8688852 -0.40049264 19.51831055 -0.45263672 C35.00550432 -0.92974145 35.00550432 -0.92974145 39.55859375 2.8984375 C43.35090083 7.71618441 43.55556525 10.99989533 43 17 C41.71929492 20.63989866 40.71761703 22.43754341 37.6875 24.8125 C32.62437197 27.04969611 27.54215816 27.12186796 22.0703125 27.09765625 C20.78125 27.09443359 19.4921875 27.09121094 18.1640625 27.08789062 C16.81770764 27.07953733 15.47135348 27.07107241 14.125 27.0625 C12.75520996 27.0574783 11.38541815 27.05291657 10.015625 27.04882812 C6.67706436 27.03707263 3.33852649 27.01913805 0 27 C0 18.09 0 9.18 0 0 Z " fill="#7D61F3" transform="translate(83,141)"/>
<path d="M0 0 C0.33 0.66 0.66 1.32 1 2 C2.99541868 2.68025637 4.99617991 3.34490497 7 4 C9.875 5.5 9.875 5.5 12 7 C12 7.66 12 8.32 12 9 C3.72836875 11.28631605 -2.49681658 9.97331699 -10 6 C-8.68 5.67 -7.36 5.34 -6 5 C-6 5.66 -6 6.32 -6 7 C-3.47636012 6.37466625 -3.47636012 6.37466625 -1 5 C-0.10613836 2.45224694 -0.10613836 2.45224694 0 0 Z " fill="#8577F5" transform="translate(253,204)"/>
<path d="M0 0 C2.0625 0.4375 2.0625 0.4375 4 1 C3.34 1.66 2.68 2.32 2 3 C1.835 3.99 1.67 4.98 1.5 6 C1 9 1 9 -1 11 C-1.99 11 -2.98 11 -4 11 C-3.10638298 3.10638298 -3.10638298 3.10638298 0 0 Z " fill="#7963F3" transform="translate(233,156)"/>
<path d="M0 0 C1 3 1 3 0.07421875 5.4453125 C-0.38339844 6.32960937 -0.84101563 7.21390625 -1.3125 8.125 C-1.76238281 9.01445312 -2.21226562 9.90390625 -2.67578125 10.8203125 C-4 13 -4 13 -6 14 C-6.66 13.67 -7.32 13.34 -8 13 C-7.58243961 8.12846211 -5.50267008 6.24637715 -2 3 C-1.34 2.01 -0.68 1.02 0 0 Z " fill="#7C6EF5" transform="translate(285,190)"/>
<path d="M0 0 C0.928125 0.515625 1.85625 1.03125 2.8125 1.5625 C2.8125 2.2225 2.8125 2.8825 2.8125 3.5625 C-0.4875 3.5625 -3.7875 3.5625 -7.1875 3.5625 C-6.8575 2.2425 -6.5275 0.9225 -6.1875 -0.4375 C-3.1875 -1.4375 -3.1875 -1.4375 0 0 Z " fill="#7668F2" transform="translate(262.1875,209.4375)"/>
<path d="M0 0 C0.99 0 1.98 0 3 0 C6.125 6.625 6.125 6.625 5 10 C3.02 7.03 1.04 4.06 -1 1 C-0.67 0.67 -0.34 0.34 0 0 Z " fill="#816AF4" transform="translate(135,193)"/>
<path d="M0 0 C0.66 0.99 1.32 1.98 2 3 C1.01 4.485 1.01 4.485 0 6 C0.66 6.33 1.32 6.66 2 7 C1.01 7.33 0.02 7.66 -1 8 C-1.66 8.99 -2.32 9.98 -3 11 C-4 8 -4 8 -3.22265625 5.95703125 C-2.83980469 5.24933594 -2.45695312 4.54164063 -2.0625 3.8125 C-1.68222656 3.09707031 -1.30195313 2.38164062 -0.91015625 1.64453125 C-0.60980469 1.10183594 -0.30945313 0.55914062 0 0 Z " fill="#7F76F1" transform="translate(311,230)"/>
<path d="M0 0 C2.62187494 1.04874998 3.79371361 1.64931313 5.25 4.125 C5.4975 4.74375 5.745 5.3625 6 6 C5.34 6.66 4.68 7.32 4 8 C0 2.25 0 2.25 0 0 Z " fill="#826DF4" transform="translate(149,216)"/>
<path d="M0 0 C2.375 0.625 2.375 0.625 5 2 C6.3125 5.125 6.3125 5.125 7 8 C6.01 8.495 6.01 8.495 5 9 C3.35 6.03 1.7 3.06 0 0 Z " fill="#816CF3" transform="translate(141,204)"/>
<path d="M0 0 C0.33 1.32 0.66 2.64 1 4 C1.66 4 2.32 4 3 4 C3.33 3.34 3.66 2.68 4 2 C3.67 3.32 3.34 4.64 3 6 C1.68 6.33 0.36 6.66 -1 7 C-0.67 4.69 -0.34 2.38 0 0 Z " fill="#8674F5" transform="translate(230,160)"/>
<path d="M0 0 C1.65 1.65 3.3 3.3 5 5 C4.01 5.33 3.02 5.66 2 6 C1.01 5.01 0.02 4.02 -1 3 C-0.67 2.01 -0.34 1.02 0 0 Z " fill="#806FF4" transform="translate(216,213)"/>
</svg>
